# Alias OBJ Model File
# Exported from SketchUp, (c) 2000-2012 Trimble Navigation Limited
# File units = meters

mtllib model.mtl

g Mesh1 Model

usemtl FrontColor
v 2.48 1.44457e-015 -2.48
vt -97.6378 97.6378
vn 0 -1 -0
v 2.48 1.44457e-015 2.48
vt -97.6378 -97.6378
v -2.48 1.44457e-015 2.48
vt 97.6378 -97.6378
v -2.48 1.44457e-015 -2.48
vt 97.6378 97.6378
f 1/1/1 2/2/1 3/3/1 4/4/1 

usemtl BackColor
vn -0 1 0
f 4/4/2 3/3/2 2/2/2 1/1/2 

usemtl FrontColor
v -2.48 1.95 -2.48
vt -97.6378 76.7717
vn -1 0 -0
vt -97.6378 5.68729e-014
vt 97.6378 5.68729e-014
v -2.48 1.95 2.48
vt 97.6378 76.7717
f 5/5/3 4/6/3 3/7/3 6/8/3 

usemtl BackColor
vn 1 -0 0
f 6/8/4 3/7/4 4/6/4 5/5/4 

usemtl FrontColor
vn 0 0 1
v 2.48 1.95 2.48
f 2/7/5 7/8/5 6/5/5 3/6/5 

usemtl BackColor
vn -0 -0 -1
f 3/6/6 6/5/6 7/8/6 2/7/6 

usemtl FrontColor
vn 1 0 -0
v 2.48 1.95 -2.48
f 7/5/7 2/6/7 1/7/7 8/8/7 

usemtl BackColor
vn -1 -0 0
f 8/8/8 1/7/8 2/6/8 7/5/8 

usemtl FrontColor
vt 97.6378 -1.54202e-014
vn 0 7.40422e-016 -1
vt -97.6378 -1.54202e-014
f 4/9/9 5/8/9 8/5/9 1/10/9 

usemtl BackColor
vn -0 -7.40422e-016 1
f 1/10/10 8/5/10 5/8/10 4/9/10 

g Mesh2 Model

l 4 3

l 1 4

l 2 1

l 3 2

l 3 6

l 6 5

l 7 6

l 8 7

l 5 8

l 5 4

l 8 1

l 7 2

